<?xml version="1.0" encoding="UTF-8" standalone="no"?>
<!DOCTYPE svg PUBLIC "-//W3C//DTD SVG 1.1//EN"
 "http://www.w3.org/Graphics/SVG/1.1/DTD/svg11.dtd">
<!-- Generated by graphviz version 2.43.0 (0)
 -->
<!-- Title: %3 Pages: 1 -->
<svg width="170pt" height="168pt"
 viewBox="0.00 0.00 170.32 168.00" xmlns="http://www.w3.org/2000/svg" xmlns:xlink="http://www.w3.org/1999/xlink">
<g id="graph0" class="graph" transform="scale(1 1) rotate(0) translate(4 164)">
<title>%3</title>
<polygon fill="white" stroke="transparent" points="-4,4 -4,-164 166.32,-164 166.32,4 -4,4"/>
<!-- 4385549504 -->
<g id="node1" class="node">
<title>4385549504</title>
<polygon fill="#caff70" stroke="black" points="117.81,-20 26.19,-20 26.19,0 117.81,0 117.81,-20"/>
<text text-anchor="middle" x="72" y="-6.4" font-family="Times,serif" font-size="12.00">AddBackward0</text>
</g>
<!-- 4385548160 -->
<g id="node2" class="node">
<title>4385548160</title>
<polygon fill="lightblue" stroke="black" points="54,-90 0,-90 0,-56 54,-56 54,-90"/>
<text text-anchor="middle" x="27" y="-62.4" font-family="Times,serif" font-size="12.00"> (1)</text>
</g>
<!-- 4385548160&#45;&gt;4385549504 -->
<g id="edge1" class="edge">
<title>4385548160&#45;&gt;4385549504</title>
<path fill="none" stroke="black" d="M38.82,-55.97C45.09,-47.48 52.78,-37.05 59.19,-28.37"/>
<polygon fill="black" stroke="black" points="62.16,-30.24 65.28,-20.11 56.53,-26.08 62.16,-30.24"/>
</g>
<!-- 4385549952 -->
<g id="node3" class="node">
<title>4385549952</title>
<polygon fill="lightgrey" stroke="black" points="162.15,-83 71.85,-83 71.85,-63 162.15,-63 162.15,-83"/>
<text text-anchor="middle" x="117" y="-69.4" font-family="Times,serif" font-size="12.00">MulBackward0</text>
</g>
<!-- 4385549952&#45;&gt;4385549504 -->
<g id="edge2" class="edge">
<title>4385549952&#45;&gt;4385549504</title>
<path fill="none" stroke="black" d="M110.36,-63C103.65,-53.9 93.1,-39.6 84.76,-28.3"/>
<polygon fill="black" stroke="black" points="87.42,-26.01 78.67,-20.04 81.79,-30.16 87.42,-26.01"/>
</g>
<!-- 4385548776 -->
<g id="node4" class="node">
<title>4385548776</title>
<polygon fill="lightblue" stroke="black" points="144,-160 90,-160 90,-126 144,-126 144,-160"/>
<text text-anchor="middle" x="117" y="-132.4" font-family="Times,serif" font-size="12.00"> (1)</text>
</g>
<!-- 4385548776&#45;&gt;4385549952 -->
<g id="edge3" class="edge">
<title>4385548776&#45;&gt;4385549952</title>
<path fill="none" stroke="black" d="M117,-125.88C117,-116.08 117,-103.5 117,-93.18"/>
<polygon fill="black" stroke="black" points="120.5,-93.11 117,-83.11 113.5,-93.11 120.5,-93.11"/>
</g>
</g>
</svg>
